REM DIRINDEX 1\5,1\2\6,1\2\7,1\3\8,1\3\9,1\4\10,1\4\11,1\4\12
REM DIRNAME folder01,folder02,folder03,folder04,folder05,folder06,folder07,folder08,folder09,folder10,folder11,folder12
TITLE ""
FILE "EJE_DB3000_5th_6C_26.mp3" MP3
  TRACK 01 AUDIO
    TITLE "0:"
    INDEX 01 00:00:00
  TRACK 02 AUDIO
    TITLE "10:cjc026_11145"
    INDEX 01 00:00:05
  TRACK 03 AUDIO
    TITLE "0:"
    INDEX 01 00:01:09
  TRACK 04 AUDIO
    TITLE "11:cjc026_11146"
    INDEX 01 00:01:34
  TRACK 05 AUDIO
    TITLE "0:"
    INDEX 01 00:02:40
  TRACK 06 AUDIO
    TITLE "12:cjc026_11147"
    INDEX 01 00:02:65
  TRACK 07 AUDIO
    TITLE "0:"
    INDEX 01 00:03:70
  TRACK 08 AUDIO
    TITLE "10:cjc026_11148"
    INDEX 01 00:04:19
  TRACK 09 AUDIO
    TITLE "0:"
    INDEX 01 00:05:18
  TRACK 10 AUDIO
    TITLE "11:cjc026_11149"
    INDEX 01 00:05:44
  TRACK 11 AUDIO
    TITLE "0:"
    INDEX 01 00:06:53
  TRACK 12 AUDIO
    TITLE "12:cjc026_11150"
    INDEX 01 00:07:03
  TRACK 13 AUDIO
    TITLE "0:"
    INDEX 01 00:08:01
  TRACK 14 AUDIO
    TITLE "10:cjc026_11151"
    INDEX 01 00:08:26
  TRACK 15 AUDIO
    TITLE "0:"
    INDEX 01 00:09:16
  TRACK 16 AUDIO
    TITLE "11:cjc026_11152"
    INDEX 01 00:09:42
  TRACK 17 AUDIO
    TITLE "0:"
    INDEX 01 00:10:45
  TRACK 18 AUDIO
    TITLE "12:cjc026_11153"
    INDEX 01 00:10:70
  TRACK 19 AUDIO
    TITLE "0:"
    INDEX 01 00:11:60
  TRACK 20 AUDIO
    TITLE "10:cjc026_11154"
    INDEX 01 00:12:11
  TRACK 21 AUDIO
    TITLE "0:"
    INDEX 01 00:13:06
  TRACK 22 AUDIO
    TITLE "11:cjc026_11155"
    INDEX 01 00:13:33
  TRACK 23 AUDIO
    TITLE "0:"
    INDEX 01 00:14:41
  TRACK 24 AUDIO
    TITLE "12:cjc026_11156"
    INDEX 01 00:14:66
  TRACK 25 AUDIO
    TITLE "0:"
    INDEX 01 00:15:60
  TRACK 26 AUDIO
    TITLE "10:cjc026_11157"
    INDEX 01 00:16:10
  TRACK 27 AUDIO
    TITLE "0:"
    INDEX 01 00:17:08
  TRACK 28 AUDIO
    TITLE "11:cjc026_11158"
    INDEX 01 00:17:37
  TRACK 29 AUDIO
    TITLE "0:"
    INDEX 01 00:18:58
  TRACK 30 AUDIO
    TITLE "12:cjc026_11159"
    INDEX 01 00:19:11
  TRACK 31 AUDIO
    TITLE "0:"
    INDEX 01 00:20:08
  TRACK 32 AUDIO
    TITLE "10:cjc026_11160"
    INDEX 01 00:20:34
  TRACK 33 AUDIO
    TITLE "0:"
    INDEX 01 00:21:33
  TRACK 34 AUDIO
    TITLE "11:cjc026_11161"
    INDEX 01 00:21:58
  TRACK 35 AUDIO
    TITLE "0:"
    INDEX 01 00:22:68
  TRACK 36 AUDIO
    TITLE "12:cjc026_11162"
    INDEX 01 00:23:18
  TRACK 37 AUDIO
    TITLE "0:"
    INDEX 01 00:24:16
  TRACK 38 AUDIO
    TITLE "10:cjc026_11163"
    INDEX 01 00:24:43
  TRACK 39 AUDIO
    TITLE "0:"
    INDEX 01 00:25:39
  TRACK 40 AUDIO
    TITLE "11:cjc026_11164"
    INDEX 01 00:25:66
  TRACK 41 AUDIO
    TITLE "0:"
    INDEX 01 00:26:66
  TRACK 42 AUDIO
    TITLE "12:cjc026_11165"
    INDEX 01 00:27:18
  TRACK 43 AUDIO
    TITLE "0:"
    INDEX 01 00:28:12
  TRACK 44 AUDIO
    TITLE "10:cjc026_11166"
    INDEX 01 00:28:39
  TRACK 45 AUDIO
    TITLE "0:"
    INDEX 01 00:29:42
  TRACK 46 AUDIO
    TITLE "11:cjc026_11167"
    INDEX 01 00:29:70
  TRACK 47 AUDIO
    TITLE "0:"
    INDEX 01 00:31:02
  TRACK 48 AUDIO
    TITLE "12:cjc026_11168"
    INDEX 01 00:31:27
  TRACK 49 AUDIO
    TITLE "0:"
    INDEX 01 00:32:31
  TRACK 50 AUDIO
    TITLE "10:cjc026_11169"
    INDEX 01 00:32:56
  TRACK 51 AUDIO
    TITLE "0:"
    INDEX 01 00:33:44
  TRACK 52 AUDIO
    TITLE "11:cjc026_11170"
    INDEX 01 00:33:71
  TRACK 53 AUDIO
    TITLE "0:"
    INDEX 01 00:35:06
  TRACK 54 AUDIO
    TITLE "12:cjc026_11171"
    INDEX 01 00:35:33
  TRACK 55 AUDIO
    TITLE "0:"
    INDEX 01 00:36:21
  TRACK 56 AUDIO
    TITLE "10:cjc026_11172"
    INDEX 01 00:36:48
  TRACK 57 AUDIO
    TITLE "0:"
    INDEX 01 00:37:50
  TRACK 58 AUDIO
    TITLE "11:cjc026_11173"
    INDEX 01 00:37:73
  TRACK 59 AUDIO
    TITLE "0:"
    INDEX 01 00:39:13
  TRACK 60 AUDIO
    TITLE "12:cjc026_11174"
    INDEX 01 00:39:41
  TRACK 61 AUDIO
    TITLE "0:"
    INDEX 01 00:40:40
  TRACK 62 AUDIO
    TITLE "10:cjc026_11175"
    INDEX 01 00:40:66
  TRACK 63 AUDIO
    TITLE "0:"
    INDEX 01 00:41:69
  TRACK 64 AUDIO
    TITLE "11:cjc026_11176"
    INDEX 01 00:42:21
  TRACK 65 AUDIO
    TITLE "0:"
    INDEX 01 00:43:40
  TRACK 66 AUDIO
    TITLE "12:cjc026_11177"
    INDEX 01 00:43:68
  TRACK 67 AUDIO
    TITLE "0:"
    INDEX 01 00:44:71
  TRACK 68 AUDIO
    TITLE "10:cjc026_11178"
    INDEX 01 00:45:24
  TRACK 69 AUDIO
    TITLE "0:"
    INDEX 01 00:46:15
  TRACK 70 AUDIO
    TITLE "11:cjc026_11179"
    INDEX 01 00:46:41
  TRACK 71 AUDIO
    TITLE "0:"
    INDEX 01 00:48:02
  TRACK 72 AUDIO
    TITLE "12:cjc026_11180"
    INDEX 01 00:48:30
  TRACK 73 AUDIO
    TITLE "0:"
    INDEX 01 00:49:21
  TRACK 74 AUDIO
    TITLE "10:cjc026_11181"
    INDEX 01 00:49:47
  TRACK 75 AUDIO
    TITLE "0:"
    INDEX 01 00:50:39
  TRACK 76 AUDIO
    TITLE "11:cjc026_11182"
    INDEX 01 00:50:66
  TRACK 77 AUDIO
    TITLE "0:"
    INDEX 01 00:51:58
  TRACK 78 AUDIO
    TITLE "12:cjc026_11183"
    INDEX 01 00:52:08
  TRACK 79 AUDIO
    TITLE "0:"
    INDEX 01 00:53:00
  TRACK 80 AUDIO
    TITLE "10:cjc026_11184"
    INDEX 01 00:53:27
  TRACK 81 AUDIO
    TITLE "0:"
    INDEX 01 00:54:30
  TRACK 82 AUDIO
    TITLE "11:cjc026_11185"
    INDEX 01 00:54:52
  TRACK 83 AUDIO
    TITLE "0:"
    INDEX 01 00:55:69
  TRACK 84 AUDIO
    TITLE "12:cjc026_11186"
    INDEX 01 00:56:18
  TRACK 85 AUDIO
    TITLE "0:"
    INDEX 01 00:57:21
